<?xml version="1.0" encoding="UTF-8"?>
<svg xmlns="http://www.w3.org/2000/svg" xmlns:xlink="http://www.w3.org/1999/xlink" width="480px" height="480px" viewBox="0 0 40 40" version="1.1">
<g id="surface1">
<path style=" stroke:none;fill-rule:nonzero;fill:#FFFFFF;fill-opacity:1;" d="M 37.5 5.5 L 21 5.5 L 21 34.621094 L 37.5 34.621094 C 38.050781 34.621094 38.5 34.171875 38.5 33.621094 L 38.5 6.5 C 38.5 5.949219 38.050781 5.5 37.5 5.5 Z M 37.5 5.5 "/>
<path style=" stroke:none;fill-rule:nonzero;fill:#B7DBBA;fill-opacity:1;" d="M 23.5 38 L 1.5 34 L 1.5 6 L 23.5 2 Z M 23.5 38 "/>
<path style=" stroke:none;fill-rule:nonzero;fill:#FFFFFF;fill-opacity:1;" d="M 15.128906 27 L 12.71875 22.441406 C 12.585938 22.140625 12.488281 21.824219 12.429688 21.5 C 12.34375 21.839844 12.230469 22.175781 12.101563 22.5 L 9.648438 27 L 5.898438 27 L 10.359375 20 L 6.269531 13 L 10.109375 13 L 12.109375 17.199219 C 12.289063 17.578125 12.429688 17.972656 12.53125 18.378906 C 12.609375 18.101563 12.761719 17.691406 12.96875 17.160156 L 15.238281 13 L 18.75 13 L 14.550781 19.941406 L 18.871094 27 Z M 15.128906 27 "/>
<path style=" stroke:none;fill-rule:nonzero;fill:#E0E9F0;fill-opacity:1;" d="M 36 15 L 28 15 L 28 11 L 36 11 Z M 29 14 L 35 14 L 35 12 L 29 12 Z M 29 14 "/>
<path style=" stroke:none;fill-rule:nonzero;fill:#E0E9F0;fill-opacity:1;" d="M 27 15 L 23.628906 15 L 23.628906 14 L 26 14 L 26 12 L 23.628906 12 L 23.628906 11 L 27 11 Z M 27 15 "/>
<path style=" stroke:none;fill-rule:nonzero;fill:#E0E9F0;fill-opacity:1;" d="M 36 20 L 28 20 L 28 16 L 36 16 Z M 29 19 L 35 19 L 35 17 L 29 17 Z M 29 19 "/>
<path style=" stroke:none;fill-rule:nonzero;fill:#E0E9F0;fill-opacity:1;" d="M 36 25 L 28 25 L 28 21 L 36 21 Z M 29 24 L 35 24 L 35 22 L 29 22 Z M 29 24 "/>
<path style=" stroke:none;fill-rule:nonzero;fill:#E0E9F0;fill-opacity:1;" d="M 36 30 L 28 30 L 28 26 L 36 26 Z M 29 29 L 35 29 L 35 27 L 29 27 Z M 29 29 "/>
<path style=" stroke:none;fill-rule:nonzero;fill:#E0E9F0;fill-opacity:1;" d="M 27 20 L 23.628906 20 L 23.628906 19 L 26 19 L 26 17 L 23.628906 17 L 23.628906 16 L 27 16 Z M 27 20 "/>
<path style=" stroke:none;fill-rule:nonzero;fill:#E0E9F0;fill-opacity:1;" d="M 27 25 L 23.628906 25 L 23.628906 24 L 26 24 L 26 22 L 23.628906 22 L 23.628906 21 L 27 21 Z M 27 25 "/>
<path style=" stroke:none;fill-rule:nonzero;fill:#E0E9F0;fill-opacity:1;" d="M 27 30 L 23.628906 30 L 23.628906 29 L 26 29 L 26 27 L 23.628906 27 L 23.628906 26 L 27 26 Z M 27 30 "/>
<path style=" stroke:none;fill-rule:nonzero;fill:#5D9874;fill-opacity:1;" d="M 18.828125 28 L 15.128906 28 C 14.9375 28 14.761719 27.890625 14.679688 27.714844 L 12.421875 22.980469 L 10.132813 27.71875 C 10.046875 27.890625 9.871094 28 9.679688 28 L 5.898438 28 C 5.71875 28 5.554688 27.902344 5.464844 27.746094 C 5.375 27.589844 5.378906 27.398438 5.46875 27.242188 L 9.785156 19.988281 L 5.828125 12.738281 C 5.746094 12.585938 5.75 12.394531 5.839844 12.242188 C 5.929688 12.09375 6.09375 12 6.269531 12 L 10.109375 12 C 10.3125 12 10.492188 12.121094 10.570313 12.304688 L 12.53125 16.917969 L 14.75 12.285156 C 14.832031 12.109375 15.007813 12 15.199219 12 L 18.710938 12 C 18.886719 12 19.050781 12.09375 19.140625 12.246094 C 19.230469 12.402344 19.234375 12.589844 19.144531 12.746094 L 15.085938 19.9375 L 19.265625 27.253906 C 19.351563 27.40625 19.351563 27.597656 19.261719 27.75 C 19.171875 27.90625 19.007813 28 18.828125 28 Z M 15.445313 27 L 17.96875 27 L 14.074219 20.1875 C 13.988281 20.035156 13.988281 19.847656 14.074219 19.695313 L 17.855469 13 L 15.515625 13 L 13.421875 17.375 C 13.234375 17.855469 13.089844 18.25 13.011719 18.519531 C 12.949219 18.734375 12.75 18.878906 12.523438 18.878906 C 12.296875 18.875 12.101563 18.71875 12.046875 18.5 C 11.953125 18.125 11.820313 17.761719 11.65625 17.414063 L 9.777344 13 L 7.113281 13 L 10.800781 19.761719 C 10.882813 19.914063 10.878906 20.105469 10.789063 20.257813 L 6.777344 27 L 9.367188 27 L 11.648438 22.28125 C 11.757813 22.011719 11.863281 21.695313 11.945313 21.375 C 12.003906 21.144531 12.203125 21.003906 12.449219 21 C 12.683594 21.007813 12.882813 21.179688 12.921875 21.410156 C 12.972656 21.695313 13.058594 21.96875 13.175781 22.230469 Z M 15.445313 27 "/>
<path style=" stroke:none;fill-rule:nonzero;fill:#5D9874;fill-opacity:1;" d="M 37.5 35 L 23.378906 35 L 23.378906 34 L 37.5 34 C 37.773438 34 38 33.773438 38 33.5 L 38 6.5 C 38 6.222656 37.773438 6 37.5 6 L 23 6 L 23 5 L 37.5 5 C 38.328125 5 39 5.671875 39 6.5 L 39 33.5 C 39 34.328125 38.328125 35 37.5 35 Z M 37.5 35 "/>
<path style=" stroke:none;fill-rule:nonzero;fill:#5D9874;fill-opacity:1;" d="M 24 38.597656 L 1 34.417969 L 1 5.582031 L 24 1.402344 Z M 2 33.582031 L 23 37.402344 L 23 2.597656 L 2 6.417969 Z M 2 33.582031 "/>
</g>
</svg>

