<?xml version="1.0" encoding="UTF-8" standalone="no"?>
<!DOCTYPE svg PUBLIC "-//W3C//DTD SVG 1.1//EN"
 "http://www.w3.org/Graphics/SVG/1.1/DTD/svg11.dtd">
<!-- Generated by graphviz version 2.38.0 (20140413.2041)
 -->
<!-- Title: G Pages: 1 -->
<svg width="111pt" height="258pt"
 viewBox="0.00 0.00 111.00 258.00" xmlns="http://www.w3.org/2000/svg" xmlns:xlink="http://www.w3.org/1999/xlink">
<g id="graph0" class="graph" transform="scale(1 1) rotate(0) translate(4 254)">
<title>G</title>
<polygon fill="white" stroke="none" points="-4,4 -4,-254 107,-254 107,4 -4,4"/>
<g id="clust1" class="cluster"><title>cluster_Global</title>
<path fill="none" stroke="gray" d="M20,-8C20,-8 83,-8 83,-8 89,-8 95,-14 95,-20 95,-20 95,-230 95,-230 95,-236 89,-242 83,-242 83,-242 20,-242 20,-242 14,-242 8,-236 8,-230 8,-230 8,-20 8,-20 8,-14 14,-8 20,-8"/>
<text text-anchor="middle" x="51.5" y="-229.2" font-family="Times New Roman,serif" font-size="11.00" fill="gray">Global</text>
</g>
<!-- \\VALIDATE -->
<g id="node1" class="node"><title>\\VALIDATE</title>
<polygon fill="none" stroke="black" points="87,-214 16,-214 16,-178 87,-178 87,-214"/>
<text text-anchor="middle" x="51.5" y="-193.2" font-family="Courier,monospace" font-size="11.00">VALIDATE</text>
</g>
<!-- \\USER -->
<g id="node2" class="node"><title>\\USER</title>
<polygon fill="none" stroke="black" points="78.5,-160 24.5,-160 24.5,-124 78.5,-124 78.5,-160"/>
<text text-anchor="middle" x="51.5" y="-139.2" font-family="Courier,monospace" font-size="11.00">USER</text>
</g>
<!-- \\Database -->
<g id="node3" class="node"><title>\\Database</title>
<polygon fill="none" stroke="black" points="87,-106 16,-106 16,-70 87,-70 87,-106"/>
<text text-anchor="middle" x="51.5" y="-85.2" font-family="Courier,monospace" font-size="11.00">Database</text>
</g>
<!-- \\VISUALDB -->
<g id="node4" class="node"><title>\\VISUALDB</title>
<polygon fill="none" stroke="black" points="87,-52 16,-52 16,-16 87,-16 87,-52"/>
<text text-anchor="middle" x="51.5" y="-31.2" font-family="Courier,monospace" font-size="11.00">VISUALDB</text>
</g>
</g>
</svg>
